<svg xmlns="http://www.w3.org/2000/svg" xmlns:xlink="http://www.w3.org/1999/xlink" width="40" zoomAndPan="magnify" viewBox="0 0 30 30.000001" height="40" preserveAspectRatio="xMidYMid meet" version="1.0"><defs><clipPath id="id1"><path d="M 16 2.40625 L 17 2.40625 L 17 3 L 16 3 Z M 16 2.40625 " clip-rule="nonzero"/></clipPath><clipPath id="id2"><path d="M 2.402344 2.410156 L 20.921875 2.410156 L 20.921875 26.351562 L 2.402344 26.351562 Z M 2.402344 2.410156 " clip-rule="nonzero"/></clipPath><clipPath id="id3"><path d="M 2 2.40625 L 21 2.40625 L 21 24 L 2 24 Z M 2 2.40625 " clip-rule="nonzero"/></clipPath><clipPath id="id4"><path d="M 2 10.398438 L 18.683594 10.398438 L 18.683594 26.351562 L 2 26.351562 Z M 2 10.398438 " clip-rule="nonzero"/></clipPath><clipPath id="id5"><path d="M 0.957031 11 L 24 11 L 24 24 L 0.957031 24 Z M 0.957031 11 " clip-rule="nonzero"/></clipPath><clipPath id="id6"><path d="M 6.472656 11.792969 L 29.265625 11.792969 L 29.265625 19.980469 L 6.472656 19.980469 Z M 6.472656 11.792969 " clip-rule="nonzero"/></clipPath><clipPath id="id7"><path d="M 12.78125 13.191406 L 29.265625 13.191406 L 29.265625 24.972656 L 12.78125 24.972656 Z M 12.78125 13.191406 " clip-rule="nonzero"/></clipPath></defs><g clip-path="url(#id1)"><path fill="rgb(47.059631%, 7.449341%, 21.958923%)" d="M 16.789062 2.640625 L 16.960938 2.535156 L 16.960938 2.546875 Z M 16.789062 2.640625 " fill-opacity="1" fill-rule="evenodd"/></g><g clip-path="url(#id2)"><path fill="rgb(90.589905%, 7.449341%, 48.629761%)" d="M 10.058594 26.351562 L 10.058594 23.972656 L 12.257812 22.746094 L 12.257812 25.121094 Z M 18.613281 21.585938 L 18.613281 12.113281 L 20.800781 10.894531 L 20.800781 20.355469 Z M 17.652344 5.0625 L 3.285156 13.203125 L 2.59375 10.675781 L 5.613281 8.964844 C 5.621094 8.972656 5.625 8.980469 5.625 8.988281 C 5.648438 9.074219 5.644531 9.164062 5.613281 9.265625 L 5.308594 9.4375 L 5.566406 10.378906 L 5.894531 10.195312 L 5.753906 9.667969 C 5.808594 9.582031 5.855469 9.488281 5.894531 9.390625 C 5.972656 9.191406 5.988281 8.996094 5.941406 8.804688 C 5.933594 8.796875 5.929688 8.789062 5.929688 8.78125 L 7.460938 7.921875 L 7.460938 7.933594 C 7.484375 8.023438 7.480469 8.121094 7.449219 8.21875 L 7.132812 8.390625 L 7.390625 9.34375 L 7.730469 9.148438 L 7.578125 8.632812 C 7.640625 8.546875 7.691406 8.457031 7.730469 8.359375 C 7.808594 8.152344 7.824219 7.953125 7.777344 7.761719 L 7.777344 7.75 L 9.300781 6.875 L 9.300781 6.886719 C 9.320312 6.980469 9.320312 7.074219 9.300781 7.175781 L 8.972656 7.359375 L 9.226562 8.300781 L 9.554688 8.117188 L 9.414062 7.597656 C 9.476562 7.515625 9.527344 7.417969 9.566406 7.3125 C 9.652344 7.105469 9.667969 6.90625 9.613281 6.714844 L 9.613281 6.703125 L 11.148438 5.832031 L 11.148438 5.84375 C 11.171875 5.933594 11.167969 6.03125 11.136719 6.128906 L 10.832031 6.300781 L 11.089844 7.242188 L 11.429688 7.058594 L 11.277344 6.53125 C 11.332031 6.445312 11.378906 6.359375 11.417969 6.269531 C 11.496094 6.054688 11.511719 5.851562 11.464844 5.660156 L 12.984375 4.796875 C 13.015625 4.890625 13.011719 4.984375 12.972656 5.085938 L 12.65625 5.257812 L 12.925781 6.210938 L 13.253906 6.015625 L 13.113281 5.5 C 13.167969 5.414062 13.214844 5.324219 13.253906 5.222656 C 13.339844 5.015625 13.355469 4.8125 13.300781 4.613281 L 14.820312 3.742188 L 14.820312 3.753906 C 14.851562 3.835938 14.851562 3.933594 14.820312 4.039062 L 14.492188 4.222656 L 14.75 5.175781 L 15.078125 4.980469 L 14.9375 4.464844 C 15 4.378906 15.054688 4.285156 15.101562 4.179688 C 15.1875 3.964844 15.203125 3.761719 15.148438 3.570312 L 16.789062 2.640625 L 16.960938 2.546875 L 16.960938 2.535156 L 17.652344 5.0625 " fill-opacity="1" fill-rule="evenodd"/></g><g clip-path="url(#id3)"><path fill="rgb(94.509888%, 24.308777%, 65.489197%)" d="M 12.257812 22.746094 L 10.058594 23.972656 L 7.882812 22.722656 L 10.105469 21.449219 L 10.773438 21.847656 Z M 11.464844 5.660156 C 11.457031 5.644531 11.453125 5.632812 11.453125 5.625 C 11.429688 5.554688 11.402344 5.496094 11.371094 5.441406 L 11.886719 5.140625 L 12.222656 4.945312 L 12.820312 4.613281 L 12.832031 4.601562 L 12.867188 4.589844 C 12.921875 4.628906 12.960938 4.691406 12.984375 4.773438 L 12.984375 4.796875 Z M 13.207031 4.394531 L 13.722656 4.097656 L 14.074219 3.902344 L 14.703125 3.546875 C 14.757812 3.585938 14.796875 3.644531 14.820312 3.730469 L 14.820312 3.742188 L 13.300781 4.613281 C 13.292969 4.605469 13.289062 4.59375 13.289062 4.578125 C 13.265625 4.511719 13.238281 4.449219 13.207031 4.394531 Z M 7.777344 7.75 C 7.769531 7.734375 7.765625 7.722656 7.765625 7.714844 C 7.742188 7.644531 7.714844 7.585938 7.683594 7.53125 L 8.199219 7.242188 L 8.550781 7.046875 L 9.183594 6.679688 C 9.234375 6.71875 9.273438 6.78125 9.300781 6.863281 L 9.300781 6.875 Z M 9.519531 6.484375 L 10.035156 6.199219 L 10.386719 6.003906 L 11.019531 5.636719 C 11.074219 5.675781 11.113281 5.730469 11.136719 5.808594 C 11.136719 5.816406 11.140625 5.824219 11.148438 5.832031 L 9.613281 6.703125 C 9.613281 6.6875 9.613281 6.675781 9.613281 6.667969 C 9.589844 6.601562 9.558594 6.539062 9.519531 6.484375 Z M 6.363281 8.289062 L 6.703125 8.09375 L 7.34375 7.726562 C 7.398438 7.773438 7.4375 7.828125 7.460938 7.898438 C 7.460938 7.90625 7.460938 7.914062 7.460938 7.921875 L 5.929688 8.78125 C 5.929688 8.773438 5.929688 8.761719 5.929688 8.746094 C 5.90625 8.6875 5.878906 8.628906 5.847656 8.574219 Z M 4.511719 9.332031 L 4.851562 9.136719 L 5.507812 8.769531 C 5.554688 8.816406 5.589844 8.875 5.613281 8.941406 C 5.613281 8.949219 5.613281 8.957031 5.613281 8.964844 L 2.59375 10.675781 L 2.558594 10.699219 L 2.335938 10.574219 Z M 20.15625 10.539062 L 20.800781 10.894531 L 18.613281 12.113281 L 16.460938 10.882812 L 17.871094 10.097656 L 17.953125 10.050781 L 18.660156 9.65625 L 18.957031 9.832031 Z M 16.789062 2.640625 L 15.148438 3.570312 C 15.140625 3.554688 15.136719 3.542969 15.136719 3.535156 C 15.113281 3.464844 15.082031 3.40625 15.042969 3.351562 L 16.695312 2.410156 L 16.960938 2.535156 L 16.789062 2.640625 " fill-opacity="1" fill-rule="evenodd"/></g><path fill="rgb(17.248535%, 24.708557%, 55.288696%)" d="M 14.074219 3.902344 L 13.722656 4.097656 C 13.730469 3.96875 13.761719 3.835938 13.816406 3.707031 C 13.902344 3.484375 14.039062 3.316406 14.226562 3.203125 C 14.410156 3.09375 14.59375 3.070312 14.773438 3.132812 C 14.890625 3.179688 14.980469 3.25 15.042969 3.351562 C 15.082031 3.40625 15.113281 3.464844 15.136719 3.535156 C 15.136719 3.542969 15.140625 3.554688 15.148438 3.570312 C 15.203125 3.761719 15.1875 3.964844 15.101562 4.179688 C 15.054688 4.285156 15 4.378906 14.9375 4.464844 C 14.867188 4.558594 14.785156 4.632812 14.691406 4.695312 L 14.578125 4.359375 C 14.683594 4.292969 14.761719 4.195312 14.808594 4.074219 C 14.808594 4.058594 14.8125 4.046875 14.820312 4.039062 C 14.851562 3.933594 14.851562 3.835938 14.820312 3.753906 L 14.820312 3.730469 C 14.796875 3.644531 14.757812 3.585938 14.703125 3.546875 C 14.679688 3.53125 14.65625 3.515625 14.632812 3.5 C 14.53125 3.46875 14.433594 3.484375 14.328125 3.546875 C 14.230469 3.609375 14.152344 3.699219 14.097656 3.820312 C 14.089844 3.84375 14.082031 3.871094 14.074219 3.902344 Z M 13.207031 4.394531 C 13.238281 4.449219 13.265625 4.511719 13.289062 4.578125 C 13.289062 4.59375 13.292969 4.605469 13.300781 4.613281 C 13.355469 4.8125 13.339844 5.015625 13.253906 5.222656 C 13.214844 5.324219 13.167969 5.414062 13.113281 5.5 C 13.035156 5.589844 12.949219 5.671875 12.855469 5.738281 L 12.738281 5.394531 C 12.839844 5.335938 12.914062 5.242188 12.960938 5.121094 C 12.96875 5.105469 12.972656 5.09375 12.972656 5.085938 C 13.011719 4.984375 13.015625 4.890625 12.984375 4.796875 L 12.984375 4.773438 C 12.960938 4.691406 12.921875 4.628906 12.867188 4.589844 C 12.84375 4.574219 12.816406 4.558594 12.785156 4.546875 C 12.691406 4.515625 12.589844 4.53125 12.480469 4.589844 C 12.378906 4.652344 12.304688 4.746094 12.257812 4.867188 C 12.242188 4.890625 12.230469 4.917969 12.222656 4.945312 L 11.886719 5.140625 C 11.886719 5.011719 11.910156 4.882812 11.964844 4.753906 C 12.0625 4.523438 12.199219 4.351562 12.386719 4.246094 C 12.574219 4.140625 12.757812 4.117188 12.9375 4.179688 C 13.046875 4.214844 13.136719 4.289062 13.207031 4.394531 Z M 11.464844 5.660156 C 11.511719 5.851562 11.496094 6.054688 11.417969 6.269531 C 11.378906 6.359375 11.332031 6.445312 11.277344 6.53125 C 11.207031 6.632812 11.117188 6.714844 11.007812 6.785156 L 10.902344 6.441406 C 11.003906 6.378906 11.078125 6.285156 11.125 6.164062 C 11.132812 6.148438 11.136719 6.136719 11.136719 6.128906 C 11.167969 6.03125 11.171875 5.933594 11.148438 5.84375 L 11.148438 5.832031 C 11.140625 5.824219 11.136719 5.816406 11.136719 5.808594 C 11.113281 5.730469 11.074219 5.675781 11.019531 5.636719 C 10.996094 5.613281 10.972656 5.597656 10.949219 5.589844 C 10.847656 5.558594 10.746094 5.574219 10.644531 5.636719 C 10.542969 5.699219 10.464844 5.789062 10.410156 5.910156 C 10.402344 5.941406 10.394531 5.972656 10.386719 6.003906 L 10.035156 6.199219 C 10.035156 6.070312 10.066406 5.933594 10.128906 5.796875 C 10.214844 5.566406 10.351562 5.398438 10.539062 5.292969 C 10.734375 5.183594 10.917969 5.160156 11.089844 5.222656 C 11.207031 5.269531 11.300781 5.339844 11.371094 5.441406 C 11.402344 5.496094 11.429688 5.554688 11.453125 5.625 C 11.453125 5.632812 11.457031 5.644531 11.464844 5.660156 Z M 9.519531 6.484375 C 9.558594 6.539062 9.589844 6.601562 9.613281 6.667969 C 9.613281 6.675781 9.613281 6.6875 9.613281 6.703125 L 9.613281 6.714844 C 9.667969 6.90625 9.652344 7.105469 9.566406 7.3125 C 9.527344 7.417969 9.476562 7.515625 9.414062 7.597656 C 9.347656 7.683594 9.265625 7.761719 9.171875 7.828125 L 9.054688 7.484375 C 9.15625 7.421875 9.226562 7.332031 9.273438 7.210938 C 9.28125 7.195312 9.292969 7.183594 9.300781 7.175781 C 9.320312 7.074219 9.320312 6.980469 9.300781 6.886719 L 9.300781 6.863281 C 9.273438 6.78125 9.234375 6.71875 9.183594 6.679688 C 9.160156 6.664062 9.132812 6.648438 9.097656 6.636719 C 9.007812 6.605469 8.90625 6.621094 8.796875 6.679688 C 8.695312 6.742188 8.621094 6.835938 8.574219 6.957031 C 8.558594 6.988281 8.550781 7.019531 8.550781 7.046875 L 8.199219 7.242188 C 8.199219 7.105469 8.230469 6.96875 8.292969 6.832031 C 8.378906 6.609375 8.515625 6.445312 8.703125 6.335938 C 8.890625 6.230469 9.074219 6.203125 9.253906 6.257812 C 9.367188 6.300781 9.457031 6.378906 9.519531 6.484375 Z M 7.777344 7.75 L 7.777344 7.761719 C 7.824219 7.953125 7.808594 8.152344 7.730469 8.359375 C 7.691406 8.457031 7.640625 8.546875 7.578125 8.632812 C 7.507812 8.726562 7.421875 8.804688 7.320312 8.875 L 7.214844 8.53125 C 7.316406 8.46875 7.390625 8.375 7.4375 8.253906 C 7.445312 8.238281 7.449219 8.226562 7.449219 8.21875 C 7.480469 8.121094 7.484375 8.023438 7.460938 7.933594 L 7.460938 7.921875 C 7.460938 7.914062 7.460938 7.90625 7.460938 7.898438 C 7.4375 7.828125 7.398438 7.773438 7.34375 7.726562 C 7.320312 7.703125 7.292969 7.6875 7.261719 7.679688 C 7.160156 7.648438 7.058594 7.660156 6.957031 7.714844 C 6.855469 7.785156 6.777344 7.875 6.722656 7.988281 C 6.71875 8.027344 6.710938 8.0625 6.703125 8.09375 L 6.363281 8.289062 C 6.363281 8.160156 6.390625 8.023438 6.445312 7.886719 C 6.539062 7.65625 6.679688 7.488281 6.863281 7.382812 C 7.050781 7.273438 7.230469 7.25 7.402344 7.3125 C 7.519531 7.351562 7.613281 7.421875 7.683594 7.53125 C 7.714844 7.585938 7.742188 7.644531 7.765625 7.714844 C 7.765625 7.722656 7.769531 7.734375 7.777344 7.75 Z M 4.851562 9.136719 L 4.511719 9.332031 C 4.511719 9.203125 4.539062 9.066406 4.59375 8.917969 C 4.6875 8.699219 4.828125 8.535156 5.015625 8.425781 C 5.203125 8.320312 5.386719 8.296875 5.566406 8.359375 C 5.683594 8.402344 5.777344 8.476562 5.847656 8.574219 C 5.878906 8.628906 5.90625 8.6875 5.929688 8.746094 C 5.929688 8.761719 5.929688 8.773438 5.929688 8.78125 C 5.929688 8.789062 5.933594 8.796875 5.941406 8.804688 C 5.988281 8.996094 5.972656 9.191406 5.894531 9.390625 C 5.855469 9.488281 5.808594 9.582031 5.753906 9.667969 C 5.675781 9.765625 5.585938 9.851562 5.484375 9.917969 L 5.367188 9.574219 C 5.46875 9.511719 5.546875 9.421875 5.601562 9.300781 C 5.601562 9.285156 5.605469 9.273438 5.613281 9.265625 C 5.644531 9.164062 5.648438 9.074219 5.625 8.988281 C 5.625 8.980469 5.621094 8.972656 5.613281 8.964844 C 5.613281 8.957031 5.613281 8.949219 5.613281 8.941406 C 5.589844 8.875 5.554688 8.816406 5.507812 8.769531 C 5.484375 8.753906 5.453125 8.742188 5.414062 8.726562 C 5.320312 8.695312 5.222656 8.710938 5.121094 8.769531 C 5.011719 8.824219 4.933594 8.914062 4.886719 9.046875 C 4.871094 9.078125 4.859375 9.109375 4.851562 9.136719 " fill-opacity="1" fill-rule="evenodd"/><path fill="rgb(15.289307%, 31.369019%, 65.489197%)" d="M 7.449219 8.21875 C 7.449219 8.226562 7.445312 8.238281 7.4375 8.253906 C 7.390625 8.375 7.316406 8.46875 7.214844 8.53125 L 7.320312 8.875 C 7.421875 8.804688 7.507812 8.726562 7.578125 8.632812 L 7.730469 9.148438 L 7.390625 9.34375 L 7.132812 8.390625 Z M 9.414062 7.597656 L 9.554688 8.117188 L 9.226562 8.300781 L 8.972656 7.359375 L 9.300781 7.175781 C 9.292969 7.183594 9.28125 7.195312 9.273438 7.210938 C 9.226562 7.332031 9.15625 7.421875 9.054688 7.484375 L 9.171875 7.828125 C 9.265625 7.761719 9.347656 7.683594 9.414062 7.597656 Z M 5.753906 9.667969 L 5.894531 10.195312 L 5.566406 10.378906 L 5.308594 9.4375 L 5.613281 9.265625 C 5.605469 9.273438 5.601562 9.285156 5.601562 9.300781 C 5.546875 9.421875 5.46875 9.511719 5.367188 9.574219 L 5.484375 9.917969 C 5.585938 9.851562 5.675781 9.765625 5.753906 9.667969 Z M 11.136719 6.128906 C 11.136719 6.136719 11.132812 6.148438 11.125 6.164062 C 11.078125 6.285156 11.003906 6.378906 10.902344 6.441406 L 11.007812 6.785156 C 11.117188 6.714844 11.207031 6.632812 11.277344 6.53125 L 11.429688 7.058594 L 11.089844 7.242188 L 10.832031 6.300781 Z M 13.113281 5.5 L 13.253906 6.015625 L 12.925781 6.210938 L 12.65625 5.257812 L 12.972656 5.085938 C 12.972656 5.09375 12.96875 5.105469 12.960938 5.121094 C 12.914062 5.242188 12.839844 5.335938 12.738281 5.394531 L 12.855469 5.738281 C 12.949219 5.671875 13.035156 5.589844 13.113281 5.5 Z M 14.9375 4.464844 L 15.078125 4.980469 L 14.75 5.175781 L 14.492188 4.222656 L 14.820312 4.039062 C 14.8125 4.046875 14.808594 4.058594 14.808594 4.074219 C 14.761719 4.195312 14.683594 4.292969 14.578125 4.359375 L 14.691406 4.695312 C 14.785156 4.632812 14.867188 4.558594 14.9375 4.464844 " fill-opacity="1" fill-rule="evenodd"/><path fill="rgb(70.199585%, 80.778503%, 81.568909%)" d="M 6.503906 20.597656 L 7.085938 22.777344 L 9.089844 21.652344 L 8.492188 19.472656 Z M 5.261719 16.0625 L 5.859375 18.253906 L 7.847656 17.117188 L 7.25 14.9375 Z M 8.339844 18.910156 L 8.410156 18.863281 L 8.550781 19.335938 L 10.539062 18.210938 L 9.941406 16.027344 L 7.953125 17.152344 L 8.082031 17.636719 L 8 17.679688 L 7.871094 17.199219 L 5.882812 18.335938 L 6.480469 20.515625 L 8.46875 19.378906 Z M 9.320312 13.765625 L 7.332031 14.890625 L 7.929688 17.070312 L 9.917969 15.949219 Z M 8.785156 11.457031 L 9.367188 13.640625 L 11.371094 12.511719 L 10.773438 10.332031 Z M 6.828125 13.054688 L 6.75 13.097656 L 6.632812 12.675781 L 4.640625 13.800781 L 5.238281 15.980469 L 7.226562 14.855469 L 7.085938 14.339844 L 7.167969 14.292969 L 7.308594 14.808594 L 9.300781 13.683594 L 8.703125 11.503906 L 6.714844 12.628906 Z M 12.609375 17.039062 L 12 14.855469 L 10.011719 15.992188 L 10.609375 18.164062 Z M 11.441406 12.46875 L 13.429688 11.34375 L 12.84375 9.160156 L 10.84375 10.285156 Z M 13.535156 11.378906 L 14.132812 13.558594 L 16.121094 12.433594 L 15.523438 10.253906 Z M 11.988281 14.777344 L 11.394531 12.59375 L 9.390625 13.71875 L 9.988281 15.902344 Z M 11.464844 12.546875 L 12.0625 14.730469 L 14.050781 13.605469 L 13.453125 11.421875 Z M 17.953125 10.050781 L 17.871094 10.097656 L 17.59375 9.082031 L 15.605469 10.207031 L 16.203125 12.386719 L 16.460938 12.246094 L 16.460938 12.335938 L 16.226562 12.46875 L 16.460938 13.324219 L 16.460938 13.667969 L 16.144531 12.511719 L 14.15625 13.640625 L 14.34375 14.316406 L 14.261719 14.363281 L 14.074219 13.683594 L 12.082031 14.808594 L 12.679688 16.992188 L 13.546875 16.503906 L 13.546875 16.605469 L 12.703125 17.082031 L 12.832031 17.546875 L 12.75 17.59375 L 12.621094 17.128906 L 10.632812 18.253906 L 10.773438 18.765625 L 10.773438 19.0625 L 10.5625 18.300781 L 8.574219 19.425781 L 9.160156 21.609375 L 10.773438 20.6875 L 10.773438 20.785156 L 7.074219 22.882812 C 7.066406 22.890625 7.058594 22.890625 7.050781 22.882812 C 7.035156 22.882812 7.027344 22.875 7.027344 22.859375 L 4.558594 13.800781 C 4.550781 13.785156 4.550781 13.773438 4.558594 13.765625 C 4.566406 13.75 4.574219 13.742188 4.582031 13.742188 L 16.996094 6.703125 C 17.003906 6.695312 17.011719 6.695312 17.023438 6.703125 C 17.03125 6.703125 17.035156 6.710938 17.042969 6.726562 Z M 17.570312 8.988281 L 16.976562 6.820312 L 14.984375 7.945312 L 15.582031 10.125 Z M 14.914062 7.988281 L 12.914062 9.113281 L 13.511719 11.296875 L 15.5 10.171875 L 14.914062 7.988281 " fill-opacity="1" fill-rule="evenodd"/><path fill="rgb(100%, 100%, 100%)" d="M 6.503906 20.597656 L 8.492188 19.472656 L 9.089844 21.652344 L 7.085938 22.777344 Z M 8.082031 17.636719 L 7.953125 17.152344 L 9.941406 16.027344 L 10.539062 18.210938 L 8.550781 19.335938 L 8.410156 18.863281 L 9.90625 18.011719 L 9.578125 16.785156 Z M 8.339844 18.910156 L 8.46875 19.378906 L 6.480469 20.515625 L 5.882812 18.335938 L 7.871094 17.199219 L 8 17.679688 L 6.503906 18.53125 L 6.84375 19.757812 Z M 5.261719 16.0625 L 7.25 14.9375 L 7.847656 17.117188 L 5.859375 18.253906 Z M 8.785156 11.457031 L 10.773438 10.332031 L 11.371094 12.511719 L 9.367188 13.640625 Z M 9.320312 13.765625 L 9.917969 15.949219 L 7.929688 17.070312 L 7.332031 14.890625 Z M 7.167969 14.292969 L 9.054688 13.226562 L 8.714844 11.984375 L 6.828125 13.054688 L 6.714844 12.628906 L 8.703125 11.503906 L 9.300781 13.683594 L 7.308594 14.808594 Z M 6.75 13.097656 L 5.636719 13.730469 L 5.976562 14.972656 L 7.085938 14.339844 L 7.226562 14.855469 L 5.238281 15.980469 L 4.640625 13.800781 L 6.632812 12.675781 Z M 12.609375 17.039062 L 10.609375 18.164062 L 10.011719 15.992188 L 12 14.855469 Z M 11.441406 12.46875 L 10.84375 10.285156 L 12.84375 9.160156 L 13.429688 11.34375 Z M 13.535156 11.378906 L 15.523438 10.253906 L 16.121094 12.433594 L 14.132812 13.558594 Z M 11.464844 12.546875 L 13.453125 11.421875 L 14.050781 13.605469 L 12.0625 14.730469 Z M 11.988281 14.777344 L 9.988281 15.902344 L 9.390625 13.71875 L 11.394531 12.59375 Z M 16.460938 10.882812 L 16.460938 12.246094 L 16.203125 12.386719 L 15.605469 10.207031 L 17.59375 9.082031 L 17.871094 10.097656 Z M 14.261719 14.363281 L 13.546875 14.789062 L 13.546875 16.503906 L 12.679688 16.992188 L 12.082031 14.808594 L 14.074219 13.683594 Z M 16.460938 13.667969 L 16.460938 13.949219 L 15.710938 13.5 L 14.34375 14.316406 L 14.15625 13.640625 L 16.144531 12.511719 Z M 16.460938 13.324219 L 16.226562 12.46875 L 16.460938 12.335938 Z M 13.546875 16.605469 L 13.546875 17.773438 L 13.007812 17.453125 L 12.832031 17.546875 L 12.703125 17.082031 Z M 12.75 17.59375 L 10.773438 18.714844 L 10.773438 18.765625 L 10.632812 18.253906 L 12.621094 17.128906 Z M 10.773438 19.0625 L 10.773438 20.6875 L 9.160156 21.609375 L 8.574219 19.425781 L 10.5625 18.300781 Z M 17.570312 8.988281 L 15.582031 10.125 L 14.984375 7.945312 L 16.976562 6.820312 Z M 14.914062 7.988281 L 15.5 10.171875 L 13.511719 11.296875 L 12.914062 9.113281 L 14.914062 7.988281 " fill-opacity="1" fill-rule="evenodd"/><path fill="rgb(96.078491%, 98.429871%, 99.609375%)" d="M 3.285156 13.203125 L 17.652344 5.0625 L 18.957031 9.832031 L 18.660156 9.65625 L 17.953125 10.050781 L 17.042969 6.726562 C 17.035156 6.710938 17.03125 6.703125 17.023438 6.703125 C 17.011719 6.695312 17.003906 6.695312 16.996094 6.703125 L 4.582031 13.742188 C 4.574219 13.742188 4.566406 13.75 4.558594 13.765625 C 4.550781 13.773438 4.550781 13.785156 4.558594 13.800781 L 7.027344 22.859375 C 7.027344 22.875 7.035156 22.882812 7.050781 22.882812 C 7.058594 22.890625 7.066406 22.890625 7.074219 22.882812 L 10.773438 20.785156 L 10.773438 21.847656 L 10.105469 21.449219 L 7.882812 22.722656 L 7.882812 23.605469 C 7.515625 23.695312 7.160156 23.667969 6.804688 23.527344 C 6.285156 23.320312 5.9375 22.898438 5.765625 22.261719 L 3.285156 13.203125 " fill-opacity="1" fill-rule="evenodd"/><path fill="rgb(94.119263%, 21.569824%, 59.999084%)" d="M 6.75 13.097656 L 6.828125 13.054688 L 8.714844 11.984375 L 9.054688 13.226562 L 7.167969 14.292969 L 7.085938 14.339844 L 5.976562 14.972656 L 5.636719 13.730469 L 6.75 13.097656 " fill-opacity="1" fill-rule="evenodd"/><g clip-path="url(#id4)"><path fill="rgb(69.799805%, 8.628845%, 30.198669%)" d="M 2.886719 13.078125 L 2.441406 11.46875 L 2.171875 12.871094 L 2.019531 12.824219 L 2.335938 10.574219 L 2.558594 10.699219 L 2.59375 10.675781 L 3.285156 13.203125 Z M 7.882812 23.605469 L 7.882812 22.722656 L 10.058594 23.972656 L 10.058594 26.351562 L 7.882812 25.109375 Z M 18.613281 12.113281 L 18.613281 21.585938 L 17.863281 21.230469 L 17.863281 14.765625 L 16.460938 13.949219 L 16.460938 10.882812 L 18.613281 12.113281 " fill-opacity="1" fill-rule="evenodd"/></g><g clip-path="url(#id5)"><path fill="rgb(83.529663%, 87.449646%, 95.689392%)" d="M 2.171875 12.871094 L 2.183594 12.871094 L 2.265625 12.824219 L 1.328125 20.035156 C 1.261719 20.425781 1.300781 20.714844 1.449219 20.90625 C 1.480469 20.945312 1.515625 20.976562 1.550781 21 L 0.992188 20.722656 C 0.96875 20.585938 0.976562 20.417969 1.015625 20.21875 L 2.019531 12.824219 Z M 3.285156 13.203125 L 5.765625 22.261719 C 5.9375 22.898438 6.285156 23.320312 6.804688 23.527344 C 7.160156 23.667969 7.515625 23.695312 7.882812 23.605469 L 7.882812 23.6875 C 7.402344 23.886719 6.941406 23.894531 6.492188 23.707031 C 5.960938 23.496094 5.609375 23.074219 5.4375 22.445312 L 4.734375 19.863281 L 2.886719 13.078125 Z M 21.457031 19.953125 L 21.457031 12.332031 L 23.667969 11.101562 L 23.667969 18.726562 L 21.457031 19.953125 " fill-opacity="1" fill-rule="evenodd"/></g><path fill="rgb(61.178589%, 75.689697%, 91.369629%)" d="M 2.886719 13.078125 L 4.734375 19.863281 L 2.980469 20.863281 C 2.488281 21.128906 2.085938 21.214844 1.773438 21.113281 C 1.75 21.105469 1.726562 21.097656 1.707031 21.089844 C 1.699219 21.082031 1.6875 21.078125 1.679688 21.078125 C 1.632812 21.0625 1.589844 21.039062 1.550781 21 C 1.515625 20.976562 1.480469 20.945312 1.449219 20.90625 C 1.300781 20.714844 1.261719 20.425781 1.328125 20.035156 L 2.265625 12.824219 L 2.183594 12.871094 L 2.171875 12.871094 L 2.441406 11.46875 L 2.886719 13.078125 " fill-opacity="1" fill-rule="evenodd"/><g clip-path="url(#id6)"><path fill="rgb(29.019165%, 76.078796%, 74.119568%)" d="M 8 17.679688 L 8.082031 17.636719 L 9.578125 16.785156 L 9.90625 18.011719 L 8.410156 18.863281 L 8.339844 18.910156 L 6.84375 19.757812 L 6.503906 18.53125 Z M 10.773438 18.714844 L 12.75 17.59375 L 12.832031 17.546875 L 13.007812 17.453125 L 13.546875 17.773438 L 15.195312 18.726562 L 12.972656 19.964844 Z M 29.273438 13.226562 L 27.074219 14.453125 L 26.523438 14.144531 L 26.523438 12.375 L 26.476562 12.308594 L 27.167969 11.90625 L 29.273438 13.226562 " fill-opacity="1" fill-rule="evenodd"/></g><path fill="rgb(98.429871%, 92.158508%, 52.938843%)" d="M 14.261719 14.363281 L 14.34375 14.316406 L 15.710938 13.5 L 16.460938 13.949219 L 17.863281 14.765625 L 15.710938 16.003906 L 13.546875 14.789062 Z M 26.523438 12.375 L 24.335938 13.605469 L 23.667969 13.179688 L 23.667969 11.457031 L 24.371094 11.066406 L 26.476562 12.308594 L 26.523438 12.375 " fill-opacity="1" fill-rule="evenodd"/><g clip-path="url(#id7)"><path fill="rgb(20.388794%, 56.469727%, 56.858826%)" d="M 12.972656 24.800781 L 12.972656 19.964844 L 15.195312 18.726562 L 15.195312 23.515625 Z M 27.121094 16.796875 L 27.074219 14.453125 L 29.273438 13.226562 L 29.273438 15.601562 L 27.121094 16.796875 " fill-opacity="1" fill-rule="evenodd"/></g><path fill="rgb(94.509888%, 63.529968%, 5.879211%)" d="M 15.710938 16.003906 L 15.757812 23.285156 L 15.195312 22.953125 L 15.195312 18.726562 L 13.546875 17.773438 L 13.546875 14.789062 Z M 24.335938 13.605469 L 24.335938 18.394531 L 23.667969 18.011719 L 23.667969 13.179688 L 24.335938 13.605469 " fill-opacity="1" fill-rule="evenodd"/><path fill="rgb(98.429871%, 81.568909%, 10.978699%)" d="M 15.757812 23.285156 L 15.710938 16.003906 L 17.863281 14.765625 L 17.863281 21.964844 Z M 24.335938 13.605469 L 26.523438 12.375 L 26.523438 17.152344 L 24.335938 18.394531 L 24.335938 13.605469 " fill-opacity="1" fill-rule="evenodd"/><path fill="rgb(14.509583%, 40.779114%, 42.349243%)" d="M 10.773438 20.6875 L 10.773438 18.714844 L 12.972656 19.964844 L 12.972656 24.800781 L 12.257812 24.410156 L 12.257812 22.746094 L 10.773438 21.847656 Z M 26.523438 16.507812 L 26.523438 14.144531 L 27.074219 14.453125 L 27.121094 16.796875 L 26.523438 16.507812 " fill-opacity="1" fill-rule="evenodd"/><path fill="rgb(92.939758%, 94.898987%, 98.429871%)" d="M 21.457031 12.332031 L 20.800781 11.949219 L 20.800781 10.894531 L 20.15625 10.539062 L 21.515625 9.769531 L 23.667969 11.101562 L 21.457031 12.332031 " fill-opacity="1" fill-rule="evenodd"/><path fill="rgb(69.799805%, 76.469421%, 90.979004%)" d="M 21.457031 12.332031 L 21.457031 19.953125 L 20.800781 19.574219 L 20.800781 11.949219 L 21.457031 12.332031 " fill-opacity="1" fill-rule="evenodd"/></svg>