<svg xmlns="http://www.w3.org/2000/svg" xmlns:xlink="http://www.w3.org/1999/xlink" width="500" height="500" viewBox="0 0 200 200" overflow="hidden!important" xmlns:v="https://vecta.io/nano"><style><![CDATA[.B{fill:#f0c7b1}.C{fill:#c27b55}.D{fill:#2a232b}.E{stroke:#c27b55}.F{stroke-width:1.5}]]></style><defs><radialGradient id="A" cx="100" cy="114" r="41" xlink:href="#P"><stop stop-opacity=".5" stop-color="#ffe4d6" offset="0"/><stop stop-opacity="0" stop-color="#f0c7b1" offset=".9"/></radialGradient><radialGradient id="B" cx="100" cy="54" r="37" xlink:href="#P"><stop stop-opacity=".5" stop-color="#ffe4d6" offset="0"/><stop stop-opacity="0" stop-color="#f0c7b1" offset=".9"/></radialGradient><linearGradient id="C" x1="100" y1="142" x2="100" y2="139" xlink:href="#P"><stop stop-color="#e8b9a0" offset=".1"/><stop stop-color="#e1ac8f" offset="1"/></linearGradient><radialGradient id="D" cx="129.041" cy="83.945" r="15.117" gradientTransform="matrix(-0.9945 0.1042 0.1042 0.9945 192.8281 -12.4633)" xlink:href="#P"><stop stop-color="#fff" offset="0"/><stop stop-color="#fcfdfd" offset=".315"/><stop stop-color="#f4f7f8" offset=".504"/><stop stop-color="#e5ecef" offset=".66"/><stop stop-color="#d8e2e7" offset=".76"/></radialGradient><radialGradient id="E" cx="128.643" cy="83.986" r="15.116" gradientTransform="matrix(0.9945 0.1042 -0.1042 0.9945 7.1738 -12.4633)" xlink:href="#P"><stop stop-color="#fff" offset="0"/><stop stop-color="#fcfdfd" offset=".316"/><stop stop-color="#f4f7f8" offset=".505"/><stop stop-color="#e5ecef" offset=".661"/><stop stop-color="#d8e2e7" offset=".76"/></radialGradient><radialGradient id="F" cx="121.986" cy="82.496" fx="133.239" fy="82.527" r="16.003" gradientTransform="matrix(0.9998 0.0208 0.0166 -0.7998 -45.3195 145.9395)" xlink:href="#P"><stop stop-color="#e1ac8f" offset="0"/><stop stop-opacity=".3" stop-color="#e1ac8f" offset=".7"/><stop stop-opacity="0" stop-color="#f0c7b1" offset="1"/></radialGradient><radialGradient id="G" cx="68.931" cy="105.995" r="29.524" gradientTransform="matrix(1.0336,0,0,1.0336,-1.6796,1.3127)" xlink:href="#P"><stop stop-opacity="0" offset=".95"/><stop stop-opacity=".2" offset="1"/></radialGradient><radialGradient id="H" cx="121.587" cy="82.496" fx="132.839" fy="82.527" r="16.003" gradientTransform="matrix(-0.9998 0.0208 -0.0166 -0.7998 244.5208 145.9478)" xlink:href="#P"><stop stop-color="#e1ac8f" offset="0"/><stop stop-opacity=".3" stop-color="#e1ac8f" offset=".7"/><stop stop-opacity="0" stop-color="#f0c7b1" offset="1"/></radialGradient><radialGradient id="I" cx="69.316" cy="105.995" r="29.524" gradientTransform="matrix(-1.0336,0,0,1.0336,201.6796,1.3127)" xlink:href="#P"><stop stop-opacity="0" offset=".95"/><stop stop-opacity=".2" offset="1"/></radialGradient><linearGradient id="J" x1="100" y1="172" x2="100" y2="128.5" xlink:href="#P"><stop stop-opacity=".8" stop-color="#e1ac8f" offset="0"/><stop stop-color="#c27b55" offset=".7"/></linearGradient><path id="K" d="M195.417 199.778c-2.196-4.746-8.195-11.779-14.86-13.722-8.239-2.403-26.837-5.308-33.733-6.923-5.528-1.296-16.662-11.294-20.564-14.65-.7-.6-1.273-1.839-1.287-2.76-.139-10.864 4.195-39.724 4.195-39.724H100 70.833s4.334 28.859 4.193 39.724c-.011.921-.587 2.16-1.285 2.76-3.902 3.356-15.036 13.354-20.564 14.65-6.897 1.615-25.495 4.619-33.733 7.022-6.667 1.942-12.664 8.876-14.86 13.622-3.708 8.008-4.584 22.5-4.584 35h100 100c0-12.499-.877-26.991-4.583-34.999z"/><path id="L" d="M144.736 127.176c-4.549 9.887-17.57 28.302-27.601 32.566-7.442 3.165-26.824 3.165-34.267 0-10.029-4.265-23.05-22.68-27.601-32.566-5.29-11.491-14.118-48.623-14.13-48.677-1.3-4.996-1.996-10.239-2.004-15.645-.051-34.048 27.156-61.685 60.774-61.738s60.913 27.495 60.963 61.543c.009 5.408-.669 10.653-1.952 15.653-.017.053-8.873 37.329-14.182 48.864z"/><path id="M" d="M82.5 130.299s12.532 1.486 16.718 1.499c4.553.012 19.282-1.499 19.282-1.499-4.258 3.534-8.943 6.932-19.555 6.999-9.492.061-11.924-3.386-16.445-6.999z"/><path id="N" d="M61.752 82.523c-.506-2.285 5.191-3.973 12.711-3.051s12.738 5.524 12.052 7.844c-.38 1.286-10.639 3.245-14.253 2.847-3.664-.405-9.288-2.123-10.51-7.64z"/><path id="O" d="M137.849 82.523c.506-2.285-5.191-3.973-12.711-3.051s-12.738 5.524-12.052 7.844c.38 1.286 10.639 3.245 14.253 2.847 3.664-.405 9.288-2.123 10.51-7.64z"/><linearGradient id="P" gradientUnits="userSpaceOnUse"/></defs><path d="M225,225H-25V-25h250V225z" fill="#61e48b"/><path d="M137.635-25h14.142L225 48.224v14.142L137.635-25zM225 90.649V76.507L123.492-25H109.35L225 90.649zm0 28.285v-14.142L95.208-25H81.065L225 118.934zm0 28.285v-14.143L66.925-25H52.782L225 147.219zM225 225v-7.071L-17.929-25H-25v7.071L217.929 225H225zm0-219.204V-8.345L208.345-25h-14.142L225 5.796zm0 28.285V19.939L180.061-25h-14.142L225 34.081zm0 141.422V161.36L38.64-25H24.497L225 175.503zM222.487-25L225-22.487V-25h-2.513zM48.224 225h14.143L-25 137.635v14.142L48.224 225zm-28.286 0h14.143L-25 165.919v14.143L19.938 225zm-28.283 0H5.798L-25 194.203v14.143L-8.345 225zm84.852 0H90.65L-25 109.351v14.142L76.507 225zm-98.994 0L-25 222.487V225h2.513zm183.847 0h14.143L-25 24.497V38.64L161.36 225zm-56.568 0h14.142L-25 81.066v14.142L104.792 225zm84.853 0h14.142L-25-3.787v14.142L189.645 225zM225 203.787v-14.143L10.354-25h-14.14L225 203.787zM133.076 225h14.142L-25 52.782v14.142L133.076 225z" fill="#45d573"/><g transform="translate(0 2)"><path d="M100.5 100.5h-1v-1h1v1z" class="D"/><use xlink:href="#K" class="B"/><path d="M159.156 184.058c24.342 3.542 34.586 8.708 37.794 50.721H200c0-12.5-.877-26.992-4.583-35-2.196-4.746-8.195-11.779-14.86-13.722-8.239-2.403-26.837-5.308-33.733-6.923-5.528-1.296-18.242-12.069-21.643-16.35 3.36 4.704 12.791 15.605 21.054 18.46 3.953 1.366 7.245 1.988 12.921 2.814zm-105.39-2.814c8.263-2.854 17.693-13.756 21.054-18.46-3.4 4.28-16.114 15.054-21.643 16.35-6.896 1.615-25.494 4.619-33.733 7.022-6.665 1.942-12.664 8.876-14.86 13.622-3.706 8.008-4.583 22.5-4.583 35h3.05c3.188-41.744 13.475-47.183 37.794-50.721 5.675-.825 8.968-1.447 12.921-2.813z" fill="#ffe4d6"/><path d="M95.646 197.62l-7.083-2.379c-10.449-4.009-44.395-6.607-44.395-6.607s35.754 1.419 43.644 2.779c-.458-4.767-3.017-20.004-3.017-20.004l6.409 21.057c.674 2.268 4.442 5.154 4.442 5.154zm10.799-1.342c-.089.073-.191.168-.302.268a2.27 2.27 0 0 0 .302-.268zm-10.799 1.342s2.893 2.992 4.347 3.03c1.91.051 4.828-2.899 6.151-4.104-1.265.957-4.159 1.391-5.31 1.436-1.33.051-5.188-.362-5.188-.362zm21.018-7.519c-1.545.248-4.386.789-4.386.789l2.287-14.89c-.646 3.071-4.474 16.211-8.12 20.278 1.91-1.616 6.158-2.391 8.324-2.704 10.236-1.484 10.232-1.483 41.062-4.94 0 0-29.071-.155-39.167 1.467z" fill="#e1ac8f"/><use xlink:href="#K" fill="none" class="E F"/><path d="M117.136 169.742c2.515-1.069 5.217-3.028 7.927-5.519-.494-.746-.828-1.684-.841-2.49-.093-7.296 1.775-22.369 3.054-31.753-15.779-1.925-38.771-1.917-54.549.014 1.278 9.384 3.145 24.446 3.05 31.738-.01.789-.348 1.735-.84 2.485 2.712 2.493 5.416 4.454 7.932 5.524 7.443 3.166 26.824 3.166 34.267.001z" fill="url(#J)"/><path d="M128.857 237.978H70.72v-56.183c22.25 4.699 36.88 4.337 58.138 0v56.183z" fill="#f3f1f3"/><path d="M107.44 237.709c-2.775 0-10.727.208-16.512-.23l-.01-.171c-.818-18.658 1.129-30.719 4.537-39.288l.048-.123-.093-.093c-.905-.904-2.425-1.935-4.034-3.025s-3.275-2.221-4.336-3.246c.625-.732 1.395-1.454 2.348-2.201.245-.125 1.162-.843 5.974-4.971l.362-.31c.818-.178 2.138-.293 3.738-.293 2.183 0 4.731.221 6.512.563 1.561 1.458 3.451 5.329 4.158 7.17-.976 2.291-2.128 3.129-3.717 4.284-.774.563-1.652 1.201-2.652 2.112l-.083.075.021.111c4.026 20.31 4.027 25.054 4.027 29.642.001 2.021.001 6.609.339 9.985a14.9 14.9 0 0 1-.627.009z" fill="#131111"/><path d="M110.35 191.495c-.754-1.995-2.71-5.93-4.28-7.359-2.876-.563-7.983-.843-10.47-.24-.108.088-6.248 5.383-6.31 5.26-.906.708-1.788 1.504-2.52 2.39 2.061 2.076 6.655 4.556 8.5 6.4-3.65 9.18-5.33 21.59-4.55 39.38.01.11.01.23.02.34 6.756.52 16.55.331 17.55.223-1.16-11.307 1.438-10.455-4.39-39.853 3.068-2.795 4.965-2.996 6.45-6.541zm-5.25 19.04c-.021-.05-.04-.1-.051-.13 2 10.55 1.38 18.632 2.891 26.972-4.736-.318-12.014-.052-16.771-.052.369-7.198 1.188-31.684 4.74-39.74.17-.046.339-.084.509-.125l-1.032 34.736 2.747-35.066a1.23 1.23 0 0 0 .06-.008l1.801 32.605.417-32.734c.026.001.051-.001.077 0l4.199 36.355-2.3-36.137a11.06 11.06 0 0 1 .942.233c.03 0 .07.01.1.03.104 1.002.936 8.402 1.671 13.061zm-.881-13.809c-2.774-1.251-6.363-1.026-9.129.24-1.681-1.813-4.08-3.077-7.53-5.391a51.98 51.98 0 0 1 2.21-1.81c.08 0 3.48-2.771 3.54-2.83.92-.84 1.74-1.79 2.52-2.62 2.93-.12 7.23.02 9.82.14 1.5 1.876 2.931 4.696 4.01 6.94-1.961 2.871-3.901 4.15-5.441 5.331z"/><path d="M78.196 213.077c-11.534-40.071-6.325-29.581-9.399-45.32 2.028-4.813 3.958-10.44 5.042-11.598l.08-.086c2.292 24.007 8.958 13.636 23.784 27.722-8.475 5.654-16.331 20.332-19.507 29.282zm52.997-45.319c-1.448-3.702-4.077-9.127-5.215-10.331 1.424 20.678-15.146 16.551-24.35 26.2 8.812 5.713 17.173 20.66 20.172 29.455 13.12-43.514 6.05-24.409 9.393-45.324z" fill="#f3f1f4"/><path d="M125.801 156.967c0 5.137-.42 9.162-1.262 10.339-2.443 5.809-13.103 9.853-16.39 11.51-2.495 1.227-4.942 2.809-6.83 4.85 3.813 2.476 5.705 3.383 12.93 14.44 4.246 7.109 6.539 12.448 7.561 15.64 13.378-44.331 6.222-24.978 9.59-46.01-1.586-4.086-4.599-9.851-5.599-10.769zm3.648 19.528c-1.957 18.078-3.491 14.485-7.74 34.181-2.716-8.644-11.075-22.913-19.43-27.091 3.937-2.957 5.031-3.131 9.729-5.279 14.396-6.42 14.985-12.385 14.138-20.271 1.207 1.423 3.125 6.161 4.692 9.521-.859 3.146-1.249 7.638-1.389 8.939zm-50.25-4.599c-4.408-3.649-3.16-8.162-5.189-16.215-.902 1-3.146 6.632-5.42 12.055.557 2.796.681 7.389.76 8.84.559 12.202 1.75 12.765 8.83 37.16 3.031-8.905 11.558-24.37 20.24-30.009-6.931-6.326-15.655-8.728-19.221-11.831zm5.46 25.509c-2.221 3.666-4.517 7.48-6.37 13.28-4.442-20.269-5.999-16.964-7.73-34.16-.32-2.971-.617-6.027-1.4-8.96 1.638-3.588 3.981-10.281 4.731-10.995 1.366 7.078.066 13.462 5.669 16.995 2.621 1.996 11.104 5.32 17.52 10.36-3.891 2.31-5.985 3.671-12.42 13.48z" fill="#cfc8d7"/><path d="M120.319 209.824l-1.209-2.654s9.148-28.175 10.743-36.225c.912 8.354-9.534 38.879-9.534 38.879zm-41.44-1.103l1.436-3.259s-8.573-26.467-10.168-34.517c-.912 8.354 8.732 37.776 8.732 37.776z" fill="#e1e0e1"/><path d="M124.787 195.605c7.065-20.834 2.756-22.551 6.305-29.469.134-.261 1.396 1.046 1.533 1.64 1.306 5.658 53.349 17.338 54.994 18.598 1.456 1.058 5.65 3.137 5.65 3.137 4.937 9.07 7.762 10.698 9.15 34.984.13 3.083-.061 11.801-.061 14.141l-85.559-.676c.205-7.791 1.2-21.81 7.988-42.355zm-49.574 0c-7.065-20.834-2.756-22.551-6.305-29.469-.134-.261-1.396 1.046-1.533 1.64-1.306 5.658-53.349 17.338-54.994 18.598-1.456 1.058-5.65 3.137-5.65 3.137-4.937 9.07-7.762 10.698-9.15 34.984-.13 3.083.061 11.801.061 14.141l85.559-.676c-.205-7.791-1.2-21.81-7.988-42.355z" fill="#82cbe2"/><path d="M130.307 190c-4.552 16.387-10.771 31.116-13.506 47.96-.89-.007 1.491-22.695 7.986-42.354 7.065-20.834 2.756-22.551 6.305-29.469.077-.15-.619 1.976-.223 2.432-.146 7.727 1.756 13.703-.562 21.431zm-60.614 0c4.552 16.387 10.771 31.116 13.506 47.96.89-.007-1.491-22.695-7.986-42.354-7.065-20.834-2.756-22.551-6.305-29.469-.077-.15.619 1.976.223 2.432.146 7.727-1.756 13.703.562 21.431z" fill="#64b8d3"/><path d="M152.436 186.031s-2.284 2.561-8.636 6.923c5.313-5.885 7.761-8.249 7.761-8.249l.875 1.326zm2.175 11.875l-1.528-1.367c-4.538 13.781-7.571 20.587-12.828 36.618 7.544-14.326 9.344-19.412 14.356-35.251zM48.439 184.705s2.447 2.364 7.761 8.249c-6.352-4.362-8.636-6.923-8.636-6.923l.875-1.326zm11.306 48.452c-5.257-16.031-8.29-22.837-12.828-36.618l-1.528 1.367c5.012 15.839 6.812 20.925 14.356 35.251z" fill="#49a6c3"/><path d="M179.409 219.335c0-11.596 3.11-18.351 9.615-28.142.608.372.931.543 1.345.875-6.917 8.583-8.291 16.591-10.96 27.267zm-38.097 11.368l12.107-34.388c-1.15-.351-8.671-2.985-9.819-3.346.41 1 3.113 1.822 7.822 4.709 0 .001-5.089 15.404-10.11 33.025zm8.221-46.126l-6.664 8.328c3.388-2.67 5.748-5.644 8.691-8.2l-14.721-12.089c3.324 3.572 12.694 11.961 12.694 11.961zm52.54 54.057l.286.002.061-14.141c-1.389-24.286-4.214-25.914-9.15-34.984 0 0-4.194-2.079-5.65-3.137-1.334-1.021-38.794-9.922-52.49-15.88 16.011 10.971 46.282 15.027 55.24 21.574 4.332 3.167 10.165 30.269 11.703 46.566zM9.613 192.037c.542-.383.619-.366 1.168-.729 6.505 9.791 9.809 16.431 9.809 28.026-2.668-10.675-4.51-19.016-10.977-27.297zm38.965 5.642c4.709-2.887 7.412-3.709 7.822-4.709-1.148.36-8.669 2.995-9.819 3.346l12.107 34.388c-5.021-17.622-10.11-33.025-10.11-33.025zm14.582-25.063c-4.21 3.564-10.727 8.721-14.721 12.089 2.943 2.557 5.304 5.53 8.691 8.2l-6.664-8.328s9.371-8.389 12.694-11.961zM9.631 192.068c8.958-6.547 39.229-10.604 55.24-21.574-13.696 5.958-51.156 14.858-52.49 15.88-1.456 1.058-5.65 3.137-5.65 3.137-4.937 9.07-7.762 10.698-9.15 34.984-.13 3.083.061 11.801.061 14.141l.286-.002c1.537-16.297 7.37-43.399 11.703-46.566z" fill="#a3dff1"/><path d="M132.246 166.374c-.049-.293-.443-.634-.738-.657s-.432.458-.567.722c-3.549 6.918.414 8.333-6.651 29.167-6.788 20.545-7.584 34.862-7.787 42.653l85.857.377c0-2.34.489-11.058.359-14.141-1.389-24.286-4.313-26.113-9.25-35.184 0 0-4.394-2.179-5.85-3.236-4.889-3.742-.59.023-22.03-6-17.576-5.135-18.525-6.577-24.899-8.35-1.288-.369-4.057-.822-6.95-2.851-.265-.185-1.399-1.93-1.494-2.5zm-15.272 70.936c3.729-23.564 6.085-29.73 11.296-47.274 3.522-11.104 1.576-17.408 3.254-22.54.088-.268.467-.282.571-.017 2.434 6.214 9.238 7.656 18.834 17.047-5.813 5.813-7.309 7.38-8.06 8.38.864.438 5.582 2.229 9.9 3.9-.245.767-13.415 38.02-13.57 38.52 10-21.578 11.292-28.211 14.22-39.01-.812-.612-7.892-3.212-9.09-3.64 4.274-4.424 5.51-5.396 7.53-7.971 1.622 0-15.874-13.318-16.73-14.211.462.364 2.752 1.391 3.01 1.491 14.682 5.166 3.065 2.829 35.2 12.001 3.072.781 7.355 1.567 10.53 1.879.218.02 5.395 2.727 8.35 3.97-7.189 7.475-11.797 17.133-12.81 29.5 3.219-12.666 4.951-19.29 13.14-28.819 7.62 15.422 6.755 13.195 9.23 47.71-20.612-.813-52.22-.999-84.805-.916zm-50.713-68.435c-2.894 2.028-5.662 2.481-6.95 2.851-6.374 1.772-7.323 3.215-24.899 8.35-21.44 6.023-17.142 2.258-22.03 6-1.456 1.058-5.85 3.236-5.85 3.236-4.937 9.07-7.861 10.897-9.25 35.184-.13 3.083.359 11.801.359 14.141l85.857-.377c-.203-7.791-.999-22.108-7.787-42.653-7.065-20.834-3.103-22.249-6.651-29.167-.136-.264-.271-.745-.567-.722s-.689.364-.738.657c-.096.569-1.23 2.314-1.494 2.5zm-68.04 69.351c2.476-34.515 1.61-32.288 9.23-47.71 8.188 9.529 9.921 16.153 13.14 28.819-1.013-12.367-5.62-22.025-12.81-29.5 2.955-1.243 8.132-3.95 8.35-3.97 3.175-.312 7.458-1.098 10.53-1.879 32.135-9.172 20.519-6.835 35.2-12.001.258-.101 2.548-1.127 3.01-1.491-.856.893-18.353 14.211-16.73 14.211 2.021 2.575 3.256 3.547 7.53 7.971-1.198.428-8.278 3.027-9.09 3.64 2.928 10.799 4.22 17.432 14.22 39.01-.155-.5-13.325-37.753-13.57-38.52l9.9-3.9c-.751-1-2.247-2.567-8.06-8.38 9.596-9.391 16.4-10.833 18.834-17.047.104-.266.483-.251.571.017 1.678 5.132-.269 11.436 3.254 22.54 5.211 17.544 7.567 23.71 11.296 47.274-32.585-.083-64.193.103-84.805.916z" fill="#3295b4"/><path d="M45.671 84.344c-1.485-2.462-6.327-9.199-10.031-8.254-3.012.772-2.973 4.971-3.206 7.455-.34 3.644-.464 9.992.525 12.568.951 2.473 3.96 7.252 5.828 9.075 2.299 2.235 5.97 9.358 6.422 10.097.711 1.168 2.137 2.84 4.325 2.708 3.071-.185 5.724-3.087 5.965-4.485 1.301-7.59-5.963-22.758-9.828-29.164z" class="B E F"/><path d="M44.2 99.341c-.143-.563.007-1.513.154-2.429.133-.835.258-1.624.182-2.182-.289-2.09-1.915-6.06-2.976-8.212-1.223-2.476-3.199-5.595-5.679-6.399-1.024-.333-1.699.065-2.089.468-.288.296-.353.645-.259.687s.307-.248.617-.519c.254-.222-.508-.04 0 0-.205 1.04-.865 6.302-.41 10.143.358 3.022 1.05 5.279 1.263 5.617a7.71 7.71 0 0 0 .16 1.043c1.002 4.41 7.518 10.177 9.034 11.82.28.303.574.483.646.409s-.101-.373-.379-.678c-1.498-1.632-7.971-7.381-8.939-11.635-1.027-4.514 3.912-11.207 4.699-12.623.401.665.742 1.303 1.004 1.835a39.5 39.5 0 0 1 .67 1.435c-.463.738-5.118 6.127-3.934 10.441.438 1.591 3.822 3.642 5.131 4.203.72.31.99.772 1.304 1.306.364.624.033 2.229 1.23 2.739.244.104.464.146.659.146a1.21 1.21 0 0 0 .783-.284c.02.271.019.619.009.941-.012.418.047.609.148.617s.21-.174.223-.587c.017-.51.014-1.141-.077-1.444-.269-.889-1.088-1.894-1.957-2.957-.854-1.045-.995-3.029-1.217-3.901zm-9.231-3.909c-2.348-6.923 1.283-13.229 1.81-14.179 1.012.399 2.562 2.193 3.221 3.235-.48.833-4.933 6.287-5.031 10.944zm10.803 11.032c-1.084-.462-.706-1.984-1.056-2.584-.318-.542-.646-1.102-1.479-1.46a3.89 3.89 0 0 1-.583-.332c-2.682-6.075.293-8.73 1.039-9.273.229.742.399 1.423.476 1.97.068.5-.059 1.298-.181 2.068-.153.955-.31 1.944-.147 2.584.244.953.411 2.97 1.291 4.048.781.956 1.583 1.942 1.857 2.746-.118.16-.489.544-1.217.233z" class="C"/><path d="M154.066 84.344c1.486-2.462 6.328-9.199 10.031-8.254 3.012.772 2.973 4.971 3.207 7.455.34 3.644.463 9.992-.525 12.568-.951 2.473-3.961 7.252-5.828 9.075-2.299 2.235-5.971 9.358-6.422 10.097-.711 1.168-2.137 2.84-4.326 2.708-3.07-.185-5.723-3.087-5.965-4.485-1.3-7.59 5.965-22.758 9.828-29.164z" class="B E F"/><path d="M154.322 103.243c-.869 1.063-1.688 2.068-1.957 2.957-.092.304-.094.935-.078 1.444.014.413.121.596.225.587s.16-.199.148-.617l.008-.941a1.21 1.21 0 0 0 .783.284 1.68 1.68 0 0 0 .66-.146c1.195-.511.865-2.116 1.229-2.739.314-.534.584-.997 1.305-1.306 1.309-.561 4.693-2.611 5.131-4.203 1.184-4.314-3.471-9.704-3.934-10.441.234-.529.463-1.018.668-1.435.264-.532.604-1.171 1.006-1.835.787 1.416 5.725 8.108 4.699 12.623-.969 4.254-7.441 10.003-8.939 11.635-.279.305-.453.604-.381.678s.367-.106.646-.409c1.516-1.643 8.031-7.41 9.033-11.82.078-.338.131-.687.162-1.043.211-.337.904-2.594 1.262-5.617.455-3.841-.205-9.103-.41-10.143.508-.04-.254-.222 0 0 .311.271.523.56.617.519s.029-.39-.258-.687c-.391-.403-1.066-.801-2.09-.468-2.48.804-4.457 3.923-5.68 6.399-1.061 2.152-2.686 6.122-2.975 8.212-.076.558.049 1.347.182 2.182.146.916.297 1.866.154 2.429-.222.871-.362 2.855-1.216 3.901zm5.416-18.755c.66-1.042 2.209-2.835 3.221-3.235.527.95 4.158 7.256 1.811 14.179-.098-4.657-4.551-10.111-5.032-10.944zm-6.988 21.741c.273-.804 1.076-1.79 1.857-2.746.879-1.078 1.047-3.095 1.291-4.048.162-.64.006-1.629-.146-2.584-.123-.77-.25-1.568-.182-2.068.076-.547.246-1.228.475-1.97.746.543 3.721 3.199 1.039 9.273-.203.136-.402.254-.584.332-.832.358-1.16.918-1.479 1.46-.35.6.029 2.123-1.055 2.584-.728.313-1.099-.071-1.216-.233z" class="C"/><use xlink:href="#L" class="B"/><path d="M110.152 1.984c26.994 6.347 47.097 30.857 47.052 60.124-.009 5.407-.704 10.65-2.004 15.646-.012.054-9.158 37.218-14.396 48.677-4.417 9.659-16.244 27.271-25.867 31.821-3.169 1.499-11.439 1.855-14.935 1.855s-11.765-.356-14.933-1.855c-9.623-4.55-21.451-22.162-25.867-31.821-5.239-11.459-14.385-48.623-14.396-48.677a62.42 62.42 0 0 1-2.004-15.646C42.756 32.841 62.857 8.331 89.853 1.984 61.03 6.885 39.087 32.276 39.134 62.854c.008 5.406.704 10.649 2.004 15.645.012.054 8.781 37.213 14.13 48.677 4.602 9.862 17.738 27.917 27.601 32.566 3.671 1.732 13.088 2.374 17.134 2.374s13.464-.643 17.133-2.374c9.862-4.649 23-22.704 27.601-32.566 5.35-11.464 14.119-48.623 14.13-48.677 1.3-4.996 1.996-10.239 2.004-15.645.047-30.578-21.896-55.969-50.719-60.87z" fill="#e8b9a0"/><use xlink:href="#L" fill="none" class="E F"/><path d="M100.2 142.947c-2.832.144-3.644-2.753-3.644-2.753s3.931.565 6.991-.353c.001.001-.855 2.981-3.347 3.106z" fill="url(#C)"/><path d="M100.488 140.76c-1.984.1-3.765-.077-3.877-.089-.138-.014-.238-.136-.224-.272s.143-.233.274-.224c.041.003 4.096.405 6.738-.337.131-.032.271.041.309.174a.25.25 0 0 1-.173.308c-.934.262-2.018.388-3.047.44z" class="C"/><use xlink:href="#M" fill="#fff"/><use xlink:href="#M" fill="none" stroke-width=".75" class="E"/><use xlink:href="#N" fill="url(#D)"/><path d="M81.485 86.896c-1.087 5.321-5.202 8.456-9.201 6.994s-6.356-6.964-5.269-12.286 5.211-8.458 9.207-6.996 6.351 6.964 5.263 12.288z" fill="#4e60a3" stroke="#152975" stroke-width=".5"/><path d="M80.318 87.021c-1.06 4.085-4.26 6.469-7.374 5.332-2.875-1.053-4.689-4.732-4.454-8.62a20.33 20.33 0 0 1 3.444-.066c-.012.056-.033.104-.045.161-.381 1.875.509 3.841 1.991 4.384s3.001-.545 3.385-2.419a4.71 4.71 0 0 0 .081-.732c1.016.493 2.013 1.131 2.972 1.96z" fill="#6777b2"/><path d="M75.265 81.268c-1.501-.574-3.035.569-3.422 2.564-.389 1.986.515 4.063 2.017 4.638s3.039-.569 3.426-2.555c.391-1.996-.516-4.074-2.021-4.647zm.329 7.053c-.625.258-1.271-.085-1.443-.771-.166-.685.205-1.444.833-1.698.629-.259 1.273.086 1.447.767.169.681-.203 1.443-.837 1.702z" opacity=".9"/><g fill="#fff"><path d="M70.264 89.515c-.463.37-1.152.04-1.548-.744-.396-.777-.335-1.708.129-2.079.458-.364 1.156-.034 1.549.744.388.778.333 1.71-.13 2.079z" opacity=".6"/><path d="M80.138 83.818c-1.058.843-2.647.083-3.547-1.701s-.764-3.92.293-4.762c1.056-.849 2.646-.087 3.542 1.699s.769 3.917-.288 4.764z" opacity=".9"/></g><path d="M53.294 83c.809 10.899 11.637 23.583 20.506 22.236 10.498.106 20.864-7.868 20.864-22.305s-5.087-26.528-21.127-26.528c-11.5-.001-20.243 12.16-20.243 26.597zm8.458-.477c-.506-2.285 5.191-3.973 12.711-3.051s12.738 5.524 12.052 7.844c-.38 1.286-10.639 3.245-14.253 2.847-3.664-.405-9.288-2.123-10.51-7.64z" class="B"/><path d="M72.262 90.163c3.614.398 13.873-1.561 14.253-2.847.687-2.32-4.534-6.921-12.052-7.844-6.46-.792-11.563.344-12.556 2.128.898-6.4 7.7-11.397 15.987-11.434 8.911-.037 16.148 5.676 16.172 12.765s-7.185 12.862-16.095 12.902-16.149-5.676-16.173-12.764c0-.105.016-.208.019-.313 1.33 5.327 6.834 7.008 10.445 7.407z" fill="url(#F)"/><use xlink:href="#N" fill="url(#G)"/><path d="M62.148 77.417c4.208-1.978 9.35-2.16 13.838-1.005 2.404.561 4.965 1.285 7.063 2.638 1.945 1.135 3.525 2.5 5.002 4.19-1.342-1.701-2.773-3.118-4.623-4.27-2.276-1.416-4.769-2.294-7.364-2.916-4.586-1.126-9.722-.87-13.916 1.363z" class="C"/><path d="M62.769 78.02c.88-.352 4.065-1 5.456-1.066 1.687-.082 5.073.125 6.735.424 3.374.608 9.251 2.483 11.678 7.184.746 1.445.074 2.456-.123 2.675.3-2.426-4.838-6.746-12.052-7.604-7.52-.894-13.217.743-12.711 2.958 1.222 5.348 6.846 7.013 10.51 7.405 4.099.439 11.684-1.539 12.686-1.753-1.999 1.009-7.524 2.095-9.767 2.303-.744.07-2.24.104-2.986.085-5.949-.158-10.169-3.175-11.729-7.26-1.002-2.626.094-4.469 2.303-5.351z"/><use xlink:href="#O" fill="url(#E)"/><path d="M132.984 86.896c-1.088 5.321-5.203 8.456-9.202 6.992-3.994-1.458-6.356-6.963-5.267-12.284s5.21-8.458 9.204-6.994c3.997 1.458 6.355 6.963 5.265 12.286z" fill="#4e60a3" stroke="#152975" stroke-width=".5"/><path d="M131.819 87.021c-1.062 4.085-4.261 6.468-7.375 5.33-2.875-1.052-4.69-4.73-4.454-8.618a20.45 20.45 0 0 1 3.445-.066c-.011.055-.035.103-.046.161-.381 1.875.508 3.84 1.99 4.383 1.489.542 3.001-.547 3.385-2.42.049-.244.073-.49.083-.732 1.013.496 2.011 1.134 2.972 1.962z" fill="#6777b2"/><path d="M126.767 81.268c-1.504-.573-3.036.569-3.425 2.564-.387 1.987.515 4.063 2.02 4.637s3.035-.57 3.426-2.555c.389-1.995-.518-4.073-2.021-4.646zm.326 7.053c-.623.258-1.271-.085-1.44-.771s.204-1.445.833-1.697c.629-.26 1.272.085 1.445.766s-.203 1.442-.838 1.702z" opacity=".9"/><g fill="#fff"><path d="M121.764 89.515c-.461.368-1.15.039-1.547-.745-.396-.776-.335-1.706.128-2.079.459-.364 1.155-.033 1.547.746s.337 1.708-.128 2.078z" opacity=".6"/><path d="M131.638 83.818c-1.06.844-2.646.083-3.548-1.701-.897-1.786-.766-3.919.293-4.761 1.056-.85 2.646-.088 3.54 1.698.901 1.787.772 3.918-.285 4.764z" opacity=".9"/></g><path d="M126.063 56.402c-16.04 0-21.127 12.091-21.127 26.528s10.366 22.412 20.864 22.305c8.869 1.347 19.697-11.337 20.506-22.236.001-14.436-8.743-26.597-20.243-26.597zm1.276 33.761c-3.614.398-13.873-1.561-14.253-2.847-.687-2.32 4.534-6.921 12.052-7.844s13.217.767 12.711 3.051c-1.222 5.517-6.846 7.235-10.51 7.64z" class="B"/><path d="M127.339 90.163c-3.614.398-13.873-1.561-14.253-2.847-.687-2.32 4.534-6.921 12.052-7.844 6.46-.792 11.563.345 12.556 2.128-.898-6.4-7.7-11.397-15.987-11.434-8.911-.037-16.148 5.676-16.172 12.765s7.185 12.862 16.095 12.902 16.149-5.676 16.173-12.764c0-.105-.016-.208-.019-.313-1.331 5.327-6.835 7.008-10.445 7.407z" fill="url(#H)"/><use xlink:href="#O" fill="url(#I)"/><path d="M137.452 77.417c-4.208-1.978-9.35-2.16-13.838-1.005-2.404.561-4.965 1.285-7.063 2.638-1.945 1.135-3.525 2.5-5.002 4.19 1.342-1.701 2.773-3.118 4.623-4.27 2.276-1.416 4.769-2.294 7.364-2.916 4.587-1.126 9.723-.87 13.916 1.363z" class="C"/><path d="M136.832 78.02c-.88-.352-4.065-1-5.456-1.066-1.687-.082-5.073.125-6.735.424-3.374.608-9.251 2.483-11.678 7.184-.746 1.445-.074 2.456.123 2.675-.3-2.426 4.838-6.746 12.052-7.604 7.52-.894 13.217.743 12.711 2.958-1.222 5.348-6.846 7.013-10.51 7.405-4.099.439-11.684-1.539-12.686-1.753 1.999 1.009 7.524 2.095 9.767 2.303.744.07 2.24.104 2.986.085 5.949-.158 10.169-3.175 11.729-7.26 1.002-2.626-.094-4.469-2.303-5.351z"/><path d="M141 113.974c.035 22.622-18.292 40.994-40.938 41.025-22.642.037-41.028-18.273-41.063-40.9-.035-22.62 18.292-41.064 40.937-41.1s41.031 18.35 41.064 40.975z" fill="url(#A)"/><path d="M137.5 53.999c0 20.711-16.789 37.5-37.499 37.5S62.5 74.71 62.5 53.999s16.79-37.5 37.501-37.5 37.499 16.789 37.499 37.5z" fill="url(#B)"/><path d="M54 74.189c9.954-9.974 16.761-5.915 30.589-3.264.845.162 6.32 1.539 5.31 3.469-.483.924-2.036.814-2.903.798-13.688-.256-20.344-9.995-32.996-1.003zm92 0c-9.953-9.974-16.761-5.915-30.589-3.264-.846.162-6.32 1.539-5.311 3.469.483.924 2.036.814 2.903.798 13.688-.256 20.345-9.995 32.997-1.003z" class="D"/><path d="M91.115 115.499c-.878 2.064 5.934 4.292 8.519 4.429 2.8.147 10.646-2.9 9.316-4.992-1.399-2.195-6.643-.286-8.906-.286-2.252-.001-7.753-1.905-8.929.849z" fill="#e1ac8f"/><path d="M101.857 117.058c-.23-.759 1.876-1.584 2.657-1.694 1.101-.16 3.36.802 3.158 1.592-.184.698-2.148-.533-2.86-.429-.734.107-2.737 1.242-2.955.531zm-6.883-.247c.968 0 2.404.623 2.668.074.315-.655-2.139-1.461-2.86-1.372-.596.07-2.733 1.315-2.439 1.839.274.481 1.355-.541 2.631-.541z" class="C"/><path d="M100.089 111.999c.607 0 1.742-.74 1.792-2.23.201-6.008-.956-23.833-1.792-23.77-.78.059-2.267 17.637-1.948 23.77.079 1.502 1.263 2.23 1.948 2.23z" fill="#fff5ef" opacity=".2"/><path d="M93.82 138.68c3.68-1.48 3.65-.37 8.15-.68 1.53-.11 3.03-.06 4.35.95-1 1.27-4.59 5.67-5.85 8.45-3.36-5.34-3.81-5.89-6.65-8.72z" class="D"/><path d="M98.35 142.37l-1.93-3.28c.91.94 1.39 1.46 1.93 3.28zm.19-2.89c.14.76 1.02 4.55 1.26 5.32-.16-2.26-.44-3.31-1.26-5.32zm1.67-.11c-.06-.27-.01-.47-.01-.47s-.09.2-.07.48c.03.74.17 1.7.17 1.7.04.53.17 1.33.17 1.33.04-1.04.02-1.67-.26-3.04zm2.03.03c-.84 1.67-1.14 2.6-1.04 4.86.36-2.36.4-2.69 1.04-4.86zm1.85-.31c-.8.52-1.37 1.75-1.12 3.04.01-1.16.54-2.42 1.12-3.04z" fill="#1b141c"/><path d="M101.72 137.92c-3.64.42-3.98-.96-8.08.73 3.17 3.14 3.42 3.56 6.84 8.97 1.21-2.82 5.17-7.68 5.98-8.68-1.68-1.35-3.74-1.09-4.74-1.02zm-1.39 9.07c-1.41-2.48-2.24-4.25-3.68-5.79-.09-.09-2.47-2.43-2.6-2.43 3.5-1.07 2.57-.1 9.25-.48.96.05 2 .2 2.84.7-3.69 3.82-2.92 3.72-4.59 5.85-.52.67-.99 1.3-1.22 2.15z" fill="#0c080c"/><g class="D"><path d="M100 18.13h0 0 0z"/><path d="M152.176 96.021c-4.33-11.451-2.396-20.042-3.227-37.21-1.283-26.428-7.483-23.179-21.749-24.214C105.156 33 97.497 22.794 81.063 22.794c-8.887 0-19.24 4.048-27.173 11.001-6.378 43.485 2.638 39.87-6.744 61.845-5.953-6.247-6.721-15.865-11.134-28.495-3.519-10.451-2.658-11.011-6.527-16.049 2.484.449 2.734.429 3.842.429-1.97-4.306-4.479-11.951-5.429-15.273 2.329-1.116 4.839-3.909 6.47-5.919-.931-2.128-1.646-4.554-2.079-6.625.077-.026.438-.16.438-.16l.004-.017c5.681-2.417 6.84-15.944 10.785-19.389 1.941-1.814 3.806-2.531 5.534-3.446.204-1.895.295-2.277.575-3.63 9.402-2.521 12.254-1.199 25.53-4.893 4.564-1.27 7.709-2.153 17.317-1.75 3.525 1.779 16.06 10.479 25.484 1.602C125.21-3.448 131.53-2.87 140.58 2.277c15.179 8.89 17.244 15.147 16.352 29.56 10.493 13.965 8.167 30.567 3.577 47.23-2.87 10.316-5.623 13.694-8.333 16.954z"/></g><path d="M152 82c-1-8 3-15 4-22-1 2-3 3-3 5 0-7 3-13 2-20-1 2-2 3-4 4 3-7 0-15-5-21 1 3 2 5 2 8-6-9-20-10-30-15 2 3 6 5 9 7-14-5-27-11-40-17 2.206 2.206 3.875 6.024 6.589 7.499 1.143.163.978.531 0 0C81.581 16.79 68.958 15.479 58 10c0 4 3 7 6 9-3 0-6-3-8-2-3 2 3 4 2 6-3 2-6-1-9-1 2 3 0 8 2 11-2-1-4-3-4-2-1 4-3 5-3 8 0 5 3 10 3 15 0-1.608-1.938-1.279-2.697-2.127 5.009 13.975 4.782 28.692 2.606 43.497.082.089.154.184.237.271 9.382-21.975.366-18.36 6.744-61.845 7.933-6.953 18.286-11.001 27.173-11.001 16.435 0 24.094 10.207 46.138 11.802 14.266 1.036 20.466-2.214 21.749 24.214.83 17.168-1.104 25.759 3.227 37.21.005-.005.009-.011.014-.016C152.841 88.595 155 81.796 155 75c-1 2-2 4-3 7z" fill="#0c080c"/><path d="M159.263 71.488c-.309.657-2.263.855-2.263 1.512 0-3 3.516-5.243 2.924-10.264 0 .396-3.158 2.95-3.475 3.346-.206 1 4.288-10.681 4.288-14.542C159.263 53.999 158 54 158 56l-.006-13.854c0 2-1.994 4.949-1.994 6.949.933-7.464-3.404-16.095-4.28-23.501-.511 1.795-1.479 3.889-.72 5.406-3-4-2-11-7-14-1 2-1 4-2 6-3-4-7-7-9-11v5c-5-4-12-6-15-12v7c-4-1-10.495-4.596-12.495-7.596C105.505 7.404 109 12 109 15c-8-4-14-10-22-14 0 2 2 4 1 6-4-2-11.771-2-13.771-6 0 3 3.11 6 3.11 9-9-1-11.009-3.822-19.242-7.596C57.097 4.404 56 7 55 9c-2-2-3-4-6-4 0 3 3 7 1 10-1 1-5-3-5-2-2 4 0 10-2 14 0 1-3-2-5-1 3.872 5.807 1.202 12.548 3.745 18.416.098.182.185.374.255.584-.096-.193-.17-.389-.255-.584C40.452 41.988 36.93 41.79 36 39c0 7.303 4.157 13.774 5.645 20.932.505.301.759.856.355 2.068a26.41 26.41 0 0 0-.355-2.068c-.748-.446-2.049-.336-2.645-.932 4.728 9.455 6.191 25.673 7.909 36.369 3.545-15.374 1.709-31.456-2.606-43.497-.185-.206-.303-.48-.303-.872.109.29.198.582.303.873.76.848 2.697.519 2.697 2.127 0-5-3-10-3-15 0-3 2-4 3-8 0-1 2 1 4 2-2-3 0-8-2-11 3 0 6 3 9 1 1-2-5-4-2-6 2-1 5 2 8 2-3-2-6-5-6-9 10.958 5.479 23.581 6.79 35.589 8.499C90.875 17.024 89.206 13.206 87 11c13 6 26 12 40 17-3-2-7-4-9-7 10 5 24 6 30 15 0-3-1-5-2-8 5 6 8 14 5 21 2-1 3-2 4-4 1 7-2 13-2 20 0-2 2-3 3-5-1 7-5 14-4 22 1-3 2-5 3-7 0 6.796-2.159 13.595-2.811 21.004.814-.979 1.633-1.975 2.457-3.163-.101-7.412 2.833-13.503 4.617-21.353z" fill="#1b141c"/><path d="M93.119 18.235c-1.128.089-2.468.279-4.94-.096-6.698-.927-28.617-1.793-29.81-8.654 1.055 3.353 7.405 4.299 12.204 5.198 0 0 3.382.651 8.723 1.251 9.995 1.167 7.883 1.954 13.823 2.301zm22.778 5.511C92 13.389 93.7 14.531 88.119 10.985c7.333 6.156 9.839 6.172 22.619 12.018 5.921 2.667 7.078 2.561 15.131 4.482-5.645-2.244-6.31-2.198-9.972-3.739zm2.722-3.011c9.914 8.153 22.008 6.125 29.75 15-6.205-9.817-19.851-8.827-29.75-15zm-58.714-3.404c-2.668-.805-3.997-.43-5.286.404 4.225-1.989 8.651 2.923 13.75 1.5-2.363.288-8.464-1.705-8.464-1.904zm-2.854 6.601c-2.328-.734-5.203-1.979-7.151-1.927-1.03.024-1.281.48-1.281.48.975-1.139 5.609 1.099 8.396 1.626.766.16 1.354.123 1.354.123s-.586-.058-1.318-.302zM45.652 35.678c.687-1.892 1.461-3.751 1.256-5.482-.104-.627-.309-.955-.289-.96.464 1.973-.313 3.175-1.68 6.136-3.015 6.453.924 11.484 2.43 18.364-.509-7.87-4.203-11.347-1.717-18.058zm108.717 10.307c.32 2.168.225 3.63-.154 7.075 0 0-.695 5.779-2.096 11.425 2.079-4.847 3.821-13.096 2.25-18.5zm1.5 15.5c-3.387 9.387-3.936 12.846-4.5 20.25l4.5-20.25z" class="D"/><path d="M114.869-1.765c-6.126.965-12.52 1.734-24-5.25 11.08 5.016 16.465 5.498 24 5.25zM128.401.19c-6.076-2.194-6.475-4.768-11.032-6.205 4.159 1.884 4.127 4.303 9.559 6.761 2.642 1.249 11.822 3.782 17.441 7.439-4.964-4.391-8.303-5.126-15.968-7.995zM60.619-2.015c11.593.241 13.441-2.719 26.75-4.25-11.966-.149-13.233 2.704-26.75 4.25zm30.25.25c4.669.559 11.405 4.746 13.5 9.5-1.529-5.33-8.168-9.47-13.5-9.5zm26 1.5c4.652 2.475 6.308 7.699 12 8.75-5.585-1.848-6.691-6.682-12-8.75zm-8 1c1.193 2.033 2.93 4.107 7.5 7-5.333-4.382-6.248-5.304-7.5-7zm23.25 4.75c5.115.627 10.451 5.663 11 11.25.256-5.506-4.691-11.154-11-11.25zm17.339 8.522c-2.307-2.946-4.339-3.642-5.339-4.022 1.428.741 2.997 1.725 4.866 4.386 0 0 3.437 4.57 4.884 9.614-.998-6.078-4.411-9.978-4.411-9.978zM54.369-.265c.185-.391 5.324 1.866 5.73 2.03 1.229.479 7.383 2.967 9.52 3.22-1.001-.268-15.196-6.399-15.25-5.25zm-8.5 6.25c.682.896 1.458 2.263 2.01 3.245 0 0 .296.523.571 1.059a25.56 25.56 0 0 1 .51 1.086c.674 1.537.995 2.486 1.04 3.625.252-2.981-2.298-7.128-4.131-9.015zm-3 3c-2.517 6.149-2.489 9.708 0 16-1.563-6.304-1.883-9.288 0-16z" fill="#3a353a"/><path d="M157.239 31.745c.228-3.5.323-5.684.02-9.14-1.138-10.129-7.217-15.136-16.529-20.59-9.158-5.208-15.513-5.751-22.811-10.37-9.334 9.042-21.935.184-25.37-1.52-16.776-.716-14.191 2.518-32.75 4.78-6.844.773-9.67 1.72-9.67 1.72l-.76.2c-.2 1-.381 1.616-.6 3.68-1.516.801-3.484 1.572-5.45 3.41-4.048 3.536-5.212 17.195-10.83 19.39v.01c-.118.043-.428.163-.55.18.419 2.096 1.188 4.75 2.08 6.79-1.594 1.959-4.17 4.807-6.48 5.8.546 1.98 3.313 10.751 5.32 15.14-1.1 0-2.003-.194-4.09-.56 4.388 5.578 3.281 5.653 6.96 16.58 4.481 12.826 5.208 22.595 11.49 28.9 5.633-10.646 5.146-15.583 5.19-19.41.123-5.265-2.433-18.462 1.935-42.798 9.262-8.105 22.378-12.754 34.815-9.932 13.001 2.94 19.525 9.551 38.02 10.89 14.399 1.046 20.201-2.213 21.471 23.93.841 17.373-1.163 26.023 3.43 37.78 2.669-3.22 5.645-6.408 8.72-17.46 4.499-16.338 7.016-33.206-3.561-47.4zm3.781 38.981c-3.468 16.597-5.491 19.609-9.061 24.96-2.882-8.88-2.093-17.47-1.8-26.59 1.486-39.246-8.424-34.825-22.86-35.92-17.688-1.192-24.622-7.896-37.76-10.54-11.972-2.45-25.25.755-36.35 11.16-6.045 27.128.578 41.608-4.78 55.37-1.162 2.943-.429 3.694-1.28 5.84-4.636-6.978-5.874-16.832-7.41-21.79-4.784-12.176-4.632-16.171-9.84-21.97 1.271.277 2.91.457 4.21.24-.01-.01-.01-.01-.01-.02-.332-1.001-4.524-12.47-5.75-15.33 2.387-1.152 4.729-3.746 6.35-5.83-1.292-4.088.314 1.902-2.1-6.66 7.366-2.215 6.6-16.125 14.11-21.21.997-.665 1.88-1.213 2.86-1.83.221-1.879.071-.771.52-3.63 8.803-1.813 12.4-.024 25.18-4.05 9.681-2.356 16.636-2.269 17.64-2.16 6.167 3.862 9.656 6.038 16.91 5.53 3.323-.272 5.966-1.878 8.28-4.24 4.01 3.008 8.485 4.831 13.99 7.35 22.244 10.181 24.229 18.459 24.229 32.18 1.398 1.975 2.938 5.099 3.7 7.19 4.595 11.341 3.098 22.261 1.022 31.95z"/><path d="M100 18.13h0 0 0z" fill="#26120b"/></g></svg>